<svg width="399" height="400" viewBox="0 0 399 400" fill="none" xmlns="http://www.w3.org/2000/svg">
<path d="M106.909 187.986H186.709C199.818 187.986 210.891 183.027 219.927 173.111C229.091 163.05 233.673 148.894 233.673 130.641C233.673 116.988 228.9 104.772 219.355 93.9928C209.809 83.0701 198.927 77.6087 186.709 77.6087H68.7273V357H54.9818V62.087H186.709C202.745 62.087 216.873 69.0574 229.091 82.9982C241.309 96.939 247.418 112.82 247.418 130.641C247.418 152.63 241.5 170.308 229.664 183.674C217.827 196.896 203.509 203.507 186.709 203.507H106.909V187.986ZM106.909 219.029H186.709C199.945 219.029 212.164 215.436 223.364 208.25C234.691 200.92 243.791 190.429 250.664 176.775C257.664 163.122 261.164 147.744 261.164 130.641C261.164 108.508 253.655 88.9626 238.636 72.0036C223.745 55.0447 206.436 46.5652 186.709 46.5652H41.2364V357H27.4909V31.0435H186.709C202.109 31.0435 216.618 35.6425 230.236 44.8406C243.855 54.0386 254.673 66.3267 262.691 81.7047C270.836 97.0827 274.909 113.395 274.909 130.641C274.909 150.187 270.836 168.008 262.691 184.105C254.545 200.058 243.727 212.49 230.236 221.4C216.873 230.167 202.364 234.551 186.709 234.551H106.909V219.029ZM106.909 250.072H186.709C200.327 250.072 213.373 247.054 225.845 241.018C238.318 234.838 249.136 226.574 258.3 216.226C267.591 205.735 274.973 193.088 280.445 178.284C285.918 163.338 288.655 147.457 288.655 130.641C288.655 110.521 284.009 91.6214 274.718 73.9438C265.427 56.1226 252.891 41.9662 237.109 31.4746C221.455 20.8394 204.655 15.5217 186.709 15.5217H13.7455V357H0V0H186.709C207.073 0 226.164 6.03623 243.982 18.1087C261.8 30.0374 275.991 46.0622 286.555 66.183C297.118 86.3037 302.4 107.79 302.4 130.641C302.4 151.05 299.282 169.877 293.045 187.123C286.809 204.226 278.409 218.454 267.845 229.808C257.282 241.162 245 250.001 231 256.324C217 262.504 202.236 265.594 186.709 265.594H106.909V250.072ZM96.2182 357H82.4727V93.1304H186.709C195.745 93.1304 203.509 96.8672 210 104.341C216.618 111.814 219.927 120.581 219.927 130.641C219.927 158.523 208.855 172.464 186.709 172.464H106.909V156.942H186.709C192.818 156.942 197.591 155.002 201.027 151.121C204.464 147.241 206.182 140.414 206.182 130.641C206.182 124.318 204.273 119.072 200.455 114.904C196.764 110.736 192.182 108.652 186.709 108.652H96.2182V357Z" fill="#BC6C25"/>
<path d="M330.273 294.913V279.391H399V294.913H330.273ZM330.273 325.957V310.435H399V325.957H330.273ZM330.273 357V341.478H399V357H330.273Z" fill="#BC6C25"/>
<path d="M12.3387 394.821C13.3199 394.821 14.2003 394.659 14.9799 394.336C15.7594 393.999 16.418 393.527 16.9557 392.92C17.4933 392.313 17.9033 391.578 18.1855 390.715C18.4678 389.852 18.6089 388.881 18.6089 387.802V370.324H24.6573V387.802C24.6573 389.582 24.3683 391.22 23.7904 392.717C23.2259 394.201 22.4127 395.482 21.3508 396.561C20.289 397.64 18.9987 398.483 17.4799 399.09C15.9611 399.697 14.2473 400 12.3387 400C10.4301 400 8.7097 399.697 7.17743 399.09C5.65861 398.483 4.36829 397.64 3.30646 396.561C2.24463 395.482 1.42473 394.201 0.846776 392.717C0.282259 391.22 0 389.582 0 387.802V370.324H6.0484V387.802C6.0484 388.881 6.18953 389.852 6.47179 390.715C6.75405 391.578 7.16399 392.313 7.70163 392.92C8.23926 393.527 8.89787 393.999 9.67744 394.336C10.457 394.659 11.3441 394.821 12.3387 394.821Z" fill="#443850"/>
<path d="M55.6298 394.74V399.676H38.2709V370.324H44.3193V394.74H55.6298Z" fill="#443850"/>
<path d="M84.3626 375.219H75.8142V399.676H69.7456V375.219H61.1972V370.324H84.3626V375.219Z" fill="#443850"/>
<path d="M101.944 399.676H95.8552V370.324H101.944V399.676Z" fill="#443850"/>
<path d="M148.183 370.324V399.676H142.841V381.652C142.841 381.274 142.847 380.87 142.861 380.438C142.888 380.007 142.928 379.568 142.982 379.123L134.615 395.044C134.158 395.92 133.452 396.359 132.498 396.359H131.651C131.181 396.359 130.764 396.251 130.401 396.035C130.038 395.806 129.749 395.475 129.534 395.044L121.127 379.063C121.167 379.535 121.201 379.993 121.228 380.438C121.254 380.87 121.268 381.274 121.268 381.652V399.676H115.925V370.324H120.522C120.777 370.324 121.006 370.33 121.207 370.344C121.409 370.357 121.584 370.398 121.732 370.465C121.893 370.519 122.034 370.614 122.155 370.748C122.289 370.87 122.417 371.045 122.538 371.274L130.724 386.932C130.979 387.404 131.214 387.889 131.429 388.388C131.658 388.887 131.873 389.4 132.074 389.926C132.276 389.386 132.484 388.86 132.699 388.348C132.928 387.835 133.17 387.343 133.425 386.871L141.55 371.274C141.671 371.045 141.799 370.87 141.933 370.748C142.068 370.614 142.209 370.519 142.357 370.465C142.518 370.398 142.693 370.357 142.881 370.344C143.082 370.33 143.318 370.324 143.586 370.324H148.183Z" fill="#443850"/>
<path d="M177.585 388.53L174.42 379.548C174.232 379.076 174.03 378.523 173.815 377.889C173.614 377.256 173.419 376.568 173.231 375.826C173.042 376.581 172.841 377.283 172.626 377.93C172.424 378.564 172.229 379.117 172.041 379.589L168.896 388.53H177.585ZM187.747 399.676H183.049C182.525 399.676 182.095 399.555 181.759 399.312C181.436 399.056 181.194 398.732 181.033 398.341L179.057 392.738H167.404L165.428 398.341C165.294 398.678 165.059 398.989 164.722 399.272C164.386 399.541 163.963 399.676 163.452 399.676H158.714L170.146 370.324H176.335L187.747 399.676Z" fill="#443850"/>
<path d="M216.148 375.219H207.6V399.676H201.531V375.219H192.983V370.324H216.148V375.219Z" fill="#443850"/>
<path d="M233.73 375.078V382.623H243.488V387.215H233.73V394.922H246.27V399.676H227.641V370.324H246.27V375.078H233.73Z" fill="#443850"/>
<path d="M303.4 384.929C305.295 384.929 306.68 384.471 307.554 383.554C308.441 382.637 308.884 381.382 308.884 379.791C308.884 379.063 308.77 378.402 308.541 377.808C308.326 377.202 307.99 376.689 307.533 376.271C307.09 375.84 306.525 375.509 305.84 375.28C305.154 375.051 304.341 374.936 303.4 374.936H299.57V384.929H303.4ZM303.4 370.324C305.403 370.324 307.13 370.56 308.582 371.032C310.047 371.504 311.25 372.165 312.191 373.014C313.132 373.85 313.824 374.848 314.267 376.008C314.724 377.168 314.953 378.429 314.953 379.791C314.953 381.234 314.718 382.556 314.247 383.756C313.777 384.956 313.064 385.988 312.11 386.851C311.156 387.714 309.953 388.388 308.501 388.874C307.05 389.346 305.349 389.582 303.4 389.582H299.57V399.676H293.521V370.324H303.4Z" fill="#443850"/>
<path d="M332.753 399.676H326.665V370.324H332.753V399.676Z" fill="#443850"/>
<path d="M366.654 392.454C366.99 392.454 367.272 392.576 367.501 392.819L369.9 395.388C368.717 396.898 367.245 398.045 365.485 398.827C363.737 399.609 361.654 400 359.235 400C357.044 400 355.075 399.629 353.327 398.887C351.58 398.132 350.095 397.087 348.872 395.752C347.649 394.417 346.708 392.832 346.049 390.998C345.39 389.164 345.061 387.161 345.061 384.99C345.061 383.533 345.216 382.151 345.525 380.843C345.847 379.521 346.311 378.307 346.916 377.202C347.521 376.096 348.247 375.098 349.093 374.208C349.954 373.318 350.921 372.562 351.997 371.942C353.072 371.308 354.241 370.829 355.505 370.506C356.782 370.169 358.139 370 359.577 370C360.653 370 361.667 370.094 362.622 370.283C363.589 370.472 364.49 370.735 365.323 371.072C366.157 371.409 366.923 371.821 367.622 372.306C368.334 372.778 368.973 373.297 369.537 373.864L367.501 376.655C367.38 376.831 367.225 376.986 367.037 377.121C366.849 377.256 366.594 377.323 366.271 377.323C365.948 377.323 365.619 377.208 365.283 376.979C364.96 376.75 364.557 376.494 364.073 376.21C363.603 375.927 363.005 375.671 362.279 375.442C361.567 375.212 360.659 375.098 359.557 375.098C358.334 375.098 357.212 375.32 356.19 375.765C355.169 376.21 354.288 376.858 353.549 377.707C352.823 378.543 352.259 379.575 351.856 380.802C351.452 382.03 351.251 383.425 351.251 384.99C351.251 386.568 351.466 387.977 351.896 389.218C352.339 390.445 352.938 391.483 353.69 392.333C354.456 393.183 355.343 393.83 356.352 394.275C357.373 394.707 358.462 394.922 359.618 394.922C360.303 394.922 360.921 394.889 361.473 394.821C362.037 394.754 362.555 394.639 363.025 394.477C363.509 394.316 363.959 394.107 364.376 393.85C364.806 393.594 365.236 393.27 365.666 392.879C365.814 392.758 365.968 392.657 366.13 392.576C366.291 392.495 366.466 392.454 366.654 392.454Z" fill="#443850"/>
<path d="M397.024 375.947C396.836 376.258 396.641 376.487 396.439 376.635C396.251 376.77 396.003 376.837 395.694 376.837C395.398 376.837 395.075 376.736 394.726 376.534C394.39 376.318 393.993 376.089 393.536 375.846C393.079 375.604 392.555 375.381 391.964 375.179C391.372 374.963 390.68 374.855 389.887 374.855C388.489 374.855 387.441 375.172 386.742 375.806C386.043 376.426 385.693 377.242 385.693 378.254C385.693 378.901 385.882 379.44 386.258 379.872C386.648 380.29 387.152 380.654 387.77 380.964C388.402 381.274 389.114 381.551 389.907 381.794C390.7 382.036 391.513 382.306 392.347 382.603C393.18 382.886 393.993 383.223 394.786 383.614C395.579 384.005 396.285 384.498 396.903 385.091C397.535 385.684 398.039 386.413 398.415 387.276C398.805 388.125 399 389.164 399 390.391C399 391.726 398.765 392.98 398.294 394.154C397.837 395.314 397.172 396.332 396.298 397.208C395.425 398.071 394.343 398.753 393.052 399.252C391.776 399.751 390.324 400 388.698 400C387.77 400 386.843 399.906 385.915 399.717C385.001 399.528 384.114 399.265 383.254 398.928C382.407 398.591 381.607 398.186 380.855 397.714C380.102 397.242 379.444 396.716 378.879 396.136L380.653 393.264C380.801 393.048 380.996 392.873 381.238 392.738C381.48 392.589 381.735 392.515 382.004 392.515C382.367 392.515 382.75 392.65 383.153 392.92C383.556 393.189 384.02 393.486 384.544 393.81C385.069 394.134 385.673 394.43 386.359 394.7C387.058 394.97 387.891 395.105 388.859 395.105C390.27 395.105 391.359 394.781 392.125 394.134C392.905 393.486 393.294 392.522 393.294 391.241C393.294 390.499 393.099 389.899 392.71 389.44C392.333 388.982 391.836 388.597 391.218 388.287C390.599 387.977 389.894 387.714 389.101 387.498C388.308 387.269 387.495 387.02 386.661 386.75C385.828 386.48 385.015 386.156 384.222 385.779C383.429 385.401 382.723 384.902 382.105 384.282C381.486 383.661 380.982 382.893 380.593 381.976C380.216 381.059 380.028 379.919 380.028 378.557C380.028 377.465 380.243 376.406 380.673 375.381C381.103 374.356 381.735 373.446 382.569 372.65C383.402 371.854 384.423 371.214 385.633 370.728C386.856 370.243 388.254 370 389.827 370C391.587 370 393.214 370.276 394.706 370.829C396.211 371.369 397.481 372.124 398.516 373.095L397.024 375.947Z" fill="#443850"/>
</svg>
